<?xml version="1.0" encoding="UTF-8"?>
<!-- Copyright 2025 Morphe. This is copyrighted content, and not licensed under open source terms.
     See https://github.com/MorpheApp/morphe-branding -->
<svg
    width="516"
    height="192"
    viewBox="0 0 516 192"
    xmlns="http://www.w3.org/2000/svg">

    <defs>
        <linearGradient id="linearGradient2" x1="83" y1="216" x2="429" y2="216" gradientUnits="userSpaceOnUse">
            <stop offset="0" stop-color="#1E5AA8"/>
            <stop offset="1" stop-color="#00AFAE"/>
        </linearGradient>
    </defs>

    <!-- Letter -->
    <g id="Letter" transform="matrix(0.27745665,0,0,0.27333333,20.971098,24.480001)">
        <path
            id="Left"
            d="M123,140 c-21,0 -39,17 -40,38 v192 c1,21 19,38 40,38 21,0 39,-17 40,-38 V178 c-1,-21 -19,-38 -40,-38 z"
            fill="#1E5AA8"/>
        <path
            id="Right"
            d="M349,285 v85 c1,21 19,38 40,38 21,0 39,-17 40,-38 V182 c-11,-14 -74,63 -80,103 z"
            fill="#00AFAE"/>
        <path
            id="Middle"
            d="M127,108 c-34,0 -44,25 -44,40 v54 c30,-33 75,27 80,33 28,32 44,87 93,89 48,-2 67,-56 93,-89 0,0 45,-74 80,-80 0,-28 -11,-47 -44,-47 -34,0 -58,50 -75,72 -17,22 -25,46 -54,46 -29,0 -38,-25 -54,-46 -17,-22 -41,-72 -75,-72 z"
            fill="url(#linearGradient2)"/>
    </g>

    <!-- Text -->
    <g id="Text" transform="matrix(0.92157345,0,0,0.92157345,-2.0786732,16.19545)">
        <path
            id="Morphe"
            d="M203.38569,129.97862 q -9.03013,0 -15.94207,-3.96624 -6.91195,-4.07954 -10.92533,-11.10542 -3.90191,-7.13924 -3.90191,-16.318211 0,-9.292311 3.90191,-16.318204 4.01338,-7.139219 10.92533,-11.105444 6.91194,-4.079553 15.94207,-4.079553 8.91863,0 15.83058,4.079553 6.91195,3.966225 10.81385,11.105444 4.01339,7.025893 4.01339,16.318204 0,9.178971 -3.90191,16.318211 -3.90191,7.02588 -10.81386,11.10542 -6.91193,3.96624 -15.94205,3.96624 z m 0,-10.19886 q 5.79711,0 10.25643,-2.71973 4.45931,-2.7197 6.91194,-7.47917 2.56411,-4.75948 2.56411,-10.992111 0,-6.232644 -2.56411,-10.992122 -2.45263,-4.872799 -6.91194,-7.592497 -4.45932,-2.719703 -10.25643,-2.719703 -5.79711,0 -10.25645,2.719703 -4.45931,2.719698 -7.02342,7.592497 -2.56411,4.759478 -2.56411,10.992122 0,6.232631 2.56411,10.992111 2.56411,4.75947 7.02342,7.47917 4.45934,2.71973 10.25645,2.71973 z M 256.4515,90.769611 q 0,-6.799252 3.233,-12.125335 3.34449,-5.439403 8.91865,-8.612385 5.57416,-3.172987 12.26314,-3.172987 6.68896,0 9.92197,2.266419 3.34449,2.153094 2.56411,5.212762 -0.33445,1.58649 -1.33779,2.493056 -0.89188,0.793248 -2.11819,1.019892 -1.22631,0.226655 -2.67559,-0.113312 -7.1349,-1.473175 -12.82055,-0.226656 -5.68563,1.24653 -9.03011,4.646157 -3.23299,3.399625 -3.23299,8.612386 z m 0.11148,38.755729 q -2.67561,0 -4.12488,-1.35986 -1.44928,-1.47318 -1.44928,-4.30619 V 73.204873 q 0,-2.719698 1.44928,-4.192872 1.44927,-1.473171 4.12488,-1.473171 2.78707,0 4.12488,1.473171 1.44928,1.359852 1.44928,4.192872 v 50.654417 q 0,2.71969 -1.44928,4.19285 -1.33781,1.4732 -4.12488,1.4732 z m 54.29221,26.51708 q -2.45262,0 -4.12486,-1.69981 -1.56076,-1.5865 -1.56076,-4.07955 V 98.588749 q 0.11148,-8.952347 4.12486,-16.091564 4.01339,-7.139215 10.92533,-11.218768 6.91195,-4.192869 15.60763,-4.192869 8.80715,0 15.71909,4.192869 6.91195,4.079553 10.92535,11.218768 4.12486,7.139217 4.12486,16.091564 0,8.952341 -3.79042,16.091571 -3.67895,7.02587 -10.14496,11.21875 -6.46602,4.07955 -14.60426,4.07955 -6.5775,0 -12.15164,-2.71969 -5.46269,-2.83304 -9.36457,-7.5925 v 30.59663 q 0,2.49305 -1.56076,4.07955 -1.56079,1.69981 -4.12489,1.69981 z m 24.9722,-36.26266 q 5.68563,0 10.14496,-2.71973 4.45931,-2.833 7.02342,-7.59249 2.67559,-4.87281 2.67559,-10.878791 0,-6.119324 -2.67559,-10.878802 -2.56411,-4.872795 -7.02342,-7.592498 -4.45933,-2.833022 -10.14496,-2.833022 -5.57414,0 -10.14496,2.833022 -4.4593,2.719703 -7.02341,7.592498 -2.56412,4.759478 -2.56412,10.878802 0,6.005981 2.56412,10.878791 2.56411,4.75949 7.02341,7.59249 4.57082,2.71973 10.14496,2.71973 z m 53.40025,-12.80528 q -2.45262,0 -4.12487,-1.58648 -1.56075,-1.69982 -1.56075,-4.19288 V 46.801108 q 0,-2.60638 1.56075,-4.192873 1.67225,-1.586491 4.12487,-1.586491 2.5641,0 4.12486,1.586491 1.56077,1.586493 1.56077,4.192873 v 54.394012 q 0,2.49306 -1.56077,4.19288 -1.56076,1.58648 -4.12486,1.58648 z m 45.81952,22.66417 q -2.45263,0 -4.12488,-1.58651 -1.56077,-1.69976 -1.56077,-4.19285 V 95.98237 q 0,-6.459288 -2.34113,-10.53884 -2.34116,-4.079555 -6.35452,-6.006007 -3.90192,-2.039776 -9.03012,-2.039776 -4.68229,0 -8.47273,1.926456 -3.79041,1.926454 -6.02006,5.21276 -2.22968,3.172984 -2.22968,7.365857 h -7.02343 q 0,-7.139216 3.3445,-12.69194 3.45597,-5.666045 9.36456,-8.952349 5.90861,-3.286304 13.26648,-3.286304 7.69233,0 13.71241,3.399626 6.13157,3.286305 9.58753,9.745596 3.56746,6.459289 3.56746,15.864921 v 27.87692 q 0,2.49309 -1.67226,4.19285 -1.56074,1.58651 -4.01336,1.58651 z m -45.81952,0 q -2.45262,0 -4.12487,-1.58651 -1.56075,-1.69976 -1.56075,-4.19285 V 73.318195 q 0,-2.60638 1.56075,-4.192872 1.67225,-1.586493 4.12487,-1.586493 2.5641,0 4.12486,1.586493 1.56077,1.586492 1.56077,4.192872 v 50.541095 q 0,2.49309 -1.56077,4.19285 -1.56076,1.58651 -4.12486,1.58651 z m 99.10844,0.33997 q -9.25308,0 -16.49947,-3.96624 -7.13493,-4.07954 -11.25979,-11.10542 -4.0134,-7.13924 -4.0134,-16.318211 0,-9.292311 3.79043,-16.318204 3.90189,-7.139219 10.70236,-11.105444 6.8005,-4.079553 15.60762,-4.079553 8.69569,0 14.93871,3.966232 6.24307,3.852907 9.47606,10.765481 3.3445,6.799253 3.3445,15.751604 0,2.153096 -1.44929,3.626255 -1.44928,1.35985 -3.67891,1.35985 h -44.92766 v -9.065655 h 44.5932 l -4.57083,3.172981 q -0.11155,-5.666044 -2.22963,-10.085558 -2.1182,-4.532836 -6.02008,-7.139215 -3.90192,-2.606382 -9.47607,-2.606382 -6.35452,0 -10.92534,2.833022 -4.4593,2.833022 -6.80044,7.819141 -2.34115,4.872801 -2.34115,11.105445 0,6.232631 2.78706,11.105451 2.7871,4.87277 7.69235,7.70582 4.90524,2.83301 11.25977,2.83301 3.45599,0 7.02344,-1.24653 3.67892,-1.35984 5.9086,-3.05967 1.67224,-1.24651 3.56746,-1.24651 2.00667,-0.11334 3.45594,1.13318 1.89522,1.69983 2.00671,3.73961 0.11155,2.03977 -1.78372,3.51294 -3.79044,3.05967 -9.47607,4.98609 -5.57414,1.92648 -10.70236,1.92648 z"
            fill="#FFFFFF"/>
    </g>
</svg>
